<?xml version="1.0" encoding="UTF-8"?>
<svg xmlns="http://www.w3.org/2000/svg" xmlns:xlink="http://www.w3.org/1999/xlink" width="474.3pt" height="474.5pt" viewBox="0 0 474.3 474.5" version="1.1">
<g id="surface1">
<path style="fill-rule:evenodd;fill:rgb(0%,0%,0%);fill-opacity:1;stroke-width:5.669;stroke-linecap:butt;stroke-linejoin:miter;stroke:rgb(0%,0%,0%);stroke-opacity:1;stroke-miterlimit:4;" d="M 2376.5625 3807.1875 C 3170.390625 3807.1875 3813.984375 3163.632813 3813.984375 2369.765625 C 3813.984375 1575.9375 3170.390625 932.382813 2376.5625 932.382813 C 1582.695313 932.382813 939.140625 1575.9375 939.140625 2369.765625 C 939.140625 3163.632813 1582.695313 3807.1875 2376.5625 3807.1875 Z M 2376.5625 3807.1875 " transform="matrix(0.1,0,0,-0.1,0,474.5)"/>
<path style="fill-rule:evenodd;fill:rgb(0%,0%,0%);fill-opacity:1;stroke-width:2.16;stroke-linecap:butt;stroke-linejoin:miter;stroke:rgb(0%,0%,0%);stroke-opacity:1;stroke-miterlimit:4;" d="M 2878.28125 4481.953125 C 2999.140625 4475.3125 2925.195313 4441.40625 2953.710938 4378.984375 L 3059.375 4351.601563 L 3053.90625 4286.328125 L 2931.953125 4309.765625 C 2900.351563 4250.46875 2910.3125 4163.945313 2857.03125 4069.023438 L 2740.195313 4089.257813 C 2733.710938 4186.09375 2736.328125 4162.382813 2820.546875 4169.023438 L 2824.726563 4268.359375 L 2648.710938 4136.875 L 2601.40625 4212.34375 C 2664.882813 4230.9375 2752.65625 4295.859375 2778.28125 4340.390625 L 2642.539063 4367.617188 L 2645.664063 4425.976563 L 2860.9375 4407.070313 Z M 1779.0625 4294.375 C 1810.742188 4312.304688 2119.960938 4383.359375 2153.28125 4370.820313 C 2158.359375 4317.382813 2154.21875 4308.554688 2106.210938 4292.578125 C 2052.1875 4274.570313 1823.085938 4228.90625 1785.15625 4233.710938 Z M 1315.625 4097.226563 C 1317.539063 4160.117188 1365.859375 4290.976563 1407.890625 4314.726563 C 1649.257813 4451.132813 1665.390625 4394.960938 1602.773438 4111.679688 C 1589.492188 4051.640625 1537.03125 3960.625 1499.414063 3909.882813 L 1417.148438 3928.828125 C 1425.742188 3987.070313 1505.390625 4026.992188 1513.515625 4107.539063 L 1433.671875 4136.484375 L 1456.523438 4193.59375 C 1558.359375 4191.953125 1538.710938 4161.445313 1553.085938 4295.78125 C 1399.140625 4280.78125 1436.953125 4179.53125 1378.710938 4080.585938 Z M 3353.398438 3975.9375 C 3281.328125 3941.796875 3201.640625 3929.335938 3108.90625 3938.203125 L 3088.085938 4025.664063 C 3209.6875 4025.390625 3373.4375 4036.640625 3409.765625 4136.992188 C 3393.164063 4161.445313 3306.875 4210.664063 3277.460938 4230.078125 C 3219.84375 4268.085938 3178.476563 4269.53125 3208.4375 4342.226563 C 3263.945313 4345.15625 3353.359375 4270.234375 3393.398438 4242.851563 C 3485.15625 4180.078125 3636.210938 4109.882813 3353.398438 3975.9375 Z M 1026.210938 3765.351563 L 961.132813 3753.359375 C 949.882813 3826.25 945.15625 3948.75 993.320313 3997.734375 C 1035.976563 4041.132813 1086.953125 4115.390625 1162.382813 4110.390625 C 1239.140625 3990.273438 1224.296875 3710.117188 1188.203125 3638.59375 L 1103.59375 3637.34375 C 1100.9375 3670.390625 1138.359375 3752.460938 1142.03125 3818.007813 C 1148.476563 3931.484375 1138.359375 3919.492188 1119.140625 4011.40625 C 990.390625 3986.054688 1038.125 3843.671875 1026.210938 3765.351563 Z M 3661.40625 4040.742188 L 3957.96875 3798.007813 C 3936.40625 3739.921875 3742.109375 3530.820313 3701.171875 3513.046875 C 3650.3125 3543.359375 3667.539063 3546.71875 3643.710938 3587.148438 L 3514.960938 3720.117188 C 3478.085938 3753.632813 3459.414063 3726.367188 3428.125 3769.804688 C 3397.65625 3812.109375 3498.28125 3880 3525.625 3906.953125 C 3568.4375 3949.179688 3604.296875 4008.4375 3661.40625 4040.742188 Z M 744.335938 3580.3125 C 729.609375 3548.554688 686.523438 3538.28125 650.390625 3552.304688 C 617.617188 3565.078125 617.65625 3616.953125 632.1875 3643.125 C 666.328125 3704.648438 782.929688 3663.515625 744.335938 3580.3125 Z M 3902.617188 3514.570313 L 3954.414063 3556.09375 C 3989.6875 3518.007813 4170.9375 3245.820313 4177.265625 3214.492188 L 4116.640625 3179.6875 C 4063.242188 3232.617188 3943.359375 3436.210938 3902.617188 3514.570313 Z M 656.953125 3382.96875 L 669.726563 3219.53125 L 586.171875 3206.953125 L 566.679688 3426.679688 C 638.242188 3476.71875 668.789063 3468.28125 758.554688 3492.96875 C 810.664063 3507.304688 914.296875 3548.789063 960.78125 3551.914063 L 976.289063 3486.71875 Z M 575.234375 2931.054688 C 588.867188 2852.617188 650.273438 2801.09375 637.304688 2698.554688 L 578.867188 2660.039063 C 527.8125 2748.164063 525.351563 2922.96875 408.867188 2955.78125 C 386.210938 2926.796875 377.421875 2860.859375 368.046875 2817.851563 C 351.171875 2740.3125 361.992188 2731.289063 283.320313 2761.289063 C 286.484375 2819.492188 313.085938 2888.28125 324.570313 2949.140625 C 339.296875 3027.304688 343.085938 3074.960938 416.40625 3092.460938 L 517.851563 2990.507813 L 691.992188 3102.382813 C 720.351563 3057.65625 724.648438 3021.914063 678.203125 2992.851563 C 650.390625 2975.46875 601.015625 2940.429688 575.234375 2931.054688 Z M 4322.265625 2981.601563 C 4317.851563 2882.890625 4312.421875 2889.960938 4290.898438 2808.28125 L 4209.296875 2820.664063 L 4238.828125 2944.492188 L 3997.460938 2894.609375 L 3970.78125 2956.289063 C 4004.257813 2977.460938 4371.640625 3085.625 4416.914063 3086.875 L 4433.984375 3008.398438 Z M 4408.945313 2788.90625 C 4386.484375 2800.820313 4385.117188 2797.890625 4368.515625 2816.875 C 4379.960938 2849.375 4400.3125 2873.671875 4424.84375 2887.539063 C 4455.3125 2872.109375 4436.875 2889.570313 4456.484375 2864.570313 C 4455.625 2832.460938 4431.640625 2802.65625 4408.945313 2788.90625 Z M 4464.609375 2715 C 4429.0625 2747.34375 4438.984375 2774.140625 4488.476563 2802.96875 C 4508.984375 2792.382813 4501.835938 2794.101563 4519.414063 2777.460938 C 4511.09375 2748.632813 4492.226563 2722.148438 4464.609375 2715 Z M 1823.632813 668.4375 L 1744.882813 377.1875 L 1680.273438 388.789063 L 1719.140625 606.601563 L 1604.648438 638.75 L 1555.351563 437.265625 L 1477.421875 447.382813 L 1462.890625 365.859375 L 2091.210938 173.828125 L 2114.023438 257.03125 L 1885.390625 324.726563 L 1904.53125 431.171875 L 2091.914063 390.507813 L 2113.476563 486.132813 L 1945.390625 540.078125 L 1960.234375 621.914063 L 2170.625 571.523438 L 2186.015625 653.320313 L 1636.210938 820.859375 C 1558.125 711.523438 1690.3125 717.890625 1823.632813 668.4375 Z M 1025.976563 830.859375 C 1002.851563 842.265625 1006.5625 841.835938 992.109375 859.140625 C 945.46875 855.3125 979.765625 847.5 936.171875 845.976563 C 936.40625 869.101563 924.609375 867.851563 989.375 900.703125 C 1010.859375 886.09375 1014.375 877.734375 1034.765625 854.648438 C 1071.40625 814.6875 1089.101563 831.835938 1125.15625 867.65625 C 1150.195313 892.460938 1185.273438 926.445313 1203.554688 955.976563 L 1152.382813 1022.617188 C 1113.90625 997.226563 1077.617188 927.109375 1045.15625 958.632813 C 1031.640625 979.84375 1112.890625 1033.4375 1137.773438 1067.382813 C 1206.445313 1038.75 1199.53125 952.695313 1296.640625 988.945313 C 1304.53125 1057.148438 1228.046875 1118.59375 1197.460938 1148.359375 C 1176.914063 1168.359375 1084.6875 1261.914063 1060.9375 1274.492188 L 1004.492188 1236.367188 L 1074.53125 1146.796875 C 1066.484375 1123.28125 993.945313 1016.210938 946.835938 1061.171875 L 1027.304688 1145.507813 L 983.125 1201.757813 L 845.898438 1085.820313 L 921.40625 980.78125 C 887.890625 960.3125 813.164063 909.960938 838.632813 853.632813 C 852.65625 822.734375 922.617188 746.640625 941.640625 734.023438 C 1014.882813 730.546875 1034.84375 780.585938 1025.976563 830.859375 Z M 2971.640625 779.609375 C 2983.710938 696.25 3096.992188 381.484375 3136.5625 326.796875 L 3231.5625 355.820313 L 3104.960938 750.078125 L 3161.601563 766.523438 C 3159.335938 661.015625 3155.195313 642.929688 3215.898438 582.1875 C 3316.601563 481.484375 3156.835938 548.945313 3239.921875 423.789063 L 3372.578125 472.226563 C 3381.601563 563.359375 3255.78125 673.359375 3255.78125 701.523438 C 3255.78125 887.734375 3272.460938 908.203125 3149.335938 856.054688 C 3089.726563 830.78125 3030.507813 801.796875 2971.640625 779.609375 Z M 3734.804688 1132.773438 C 3710.9375 1140.039063 3699.921875 1147.96875 3686.796875 1161.445313 L 3753.828125 1261.015625 C 3767.265625 1278.710938 3765.546875 1280.664063 3780.703125 1299.335938 C 3815.195313 1296.757813 3815.546875 1286.757813 3842.460938 1273.398438 C 3832.03125 1237.070313 3757.890625 1149.453125 3734.804688 1132.773438 Z M 3557.34375 1151.875 L 3540.507813 1130 C 3534.140625 1106.054688 3674.414063 977.96875 3701.171875 972.539063 L 3984.21875 1328.59375 L 3830.664063 1469.335938 L 3822.578125 1471.601563 Z M 806.484375 1375.742188 L 690.234375 1351.132813 L 724.414063 1280.898438 L 580.3125 1150.742188 L 631.289063 1084.804688 C 677.773438 1106.132813 759.960938 1199.101563 790.078125 1200.351563 L 810.976563 1121.796875 C 856.484375 1124.21875 910.585938 1178.125 913.789063 1197.1875 C 924.335938 1260.15625 852.96875 1209.53125 829.609375 1269.257813 L 962.265625 1270.664063 L 950.46875 1323.984375 L 1005.273438 1328.320313 C 989.960938 1367.34375 958.4375 1412.8125 916.640625 1423.75 C 773.203125 1461.328125 825.664063 1413.828125 806.484375 1375.742188 Z M 3805.507813 906.992188 C 3806.132813 949.492188 3819.53125 964.921875 3852.265625 980.351563 C 3879.492188 967.148438 3885.507813 960.820313 3907.226563 940.078125 C 3891.09375 869.84375 3849.140625 861.71875 3805.507813 906.992188 Z M 3790.703125 1035.78125 C 3779.84375 1016.09375 3796.210938 1034.453125 3775.976563 1015.117188 C 3767.460938 1007.03125 3768.242188 1010.117188 3756.875 1002.304688 L 3672.578125 863.945313 L 3677.421875 857.382813 L 3842.578125 731.71875 L 4043.789063 989.335938 L 3863.28125 1123.789063 Z M 2849.453125 620.15625 C 2867.148438 596.835938 2873.59375 580.976563 2875.507813 541.992188 L 2842.304688 533.28125 C 2821.5625 551.835938 2813.28125 568.671875 2800.273438 598.125 C 2817.34375 612.539063 2819.0625 614.882813 2849.453125 620.15625 Z M 2746.875 652.578125 L 2652.460938 613.476563 C 2652.03125 489.0625 2682.96875 624.21875 2737.460938 495.507813 C 2684.53125 455.273438 2691.796875 488.320313 2707.109375 407.109375 C 2741.445313 406.835938 2992.890625 507.929688 3018.554688 526.5625 L 3006.640625 587.226563 C 2969.921875 595.351563 2937.890625 582.96875 2934.53125 641.09375 C 2931.757813 691.015625 2973.710938 642.460938 2950.664063 731.054688 C 2925.390625 729.765625 2916.289063 723.242188 2892.890625 713.828125 C 2814.492188 682.1875 2851.171875 753.984375 2778.515625 710.039063 C 2731.328125 681.523438 2767.226563 692.109375 2746.875 652.578125 Z M 4011.523438 1186.601563 C 4014.140625 1203.945313 4016.328125 1209.53125 4023.632813 1221.601563 L 4043.125 1246.796875 L 4099.453125 1202.539063 C 4087.460938 1176.25 4080.15625 1166.71875 4059.023438 1149.570313 C 4036.640625 1157.578125 4024.648438 1167.695313 4011.523438 1186.601563 Z M 4051.09375 1032.5 C 4086.132813 1049.609375 4215.351563 1231.171875 4230.78125 1274.101563 C 4210.390625 1300.820313 4112.96875 1386.757813 4074.921875 1392.070313 C 4021.132813 1335.46875 3966.289063 1262.65625 3916.914063 1201.484375 C 3871.484375 1145.195313 3899.023438 1136.640625 3943.789063 1103.125 C 3973.164063 1081.132813 4015.351563 1048.90625 4051.09375 1032.5 Z M 3677.304688 3931.40625 C 3633.554688 3914.84375 3563.28125 3833.710938 3550.234375 3792.890625 L 3711.875 3640.351563 L 3843.515625 3787.070313 C 3831.875 3805.195313 3699.492188 3917.851563 3677.304688 3931.40625 Z M 496.523438 1242.265625 C 502.851563 1213.046875 525.976563 1191.09375 544.0625 1172.304688 C 580.039063 1181.992188 641.171875 1235.898438 656.210938 1266.132813 C 646.875 1292.070313 638.710938 1300.820313 615.625 1314.726563 C 593.671875 1309.023438 510.078125 1256.5625 496.523438 1242.265625 Z M 703.085938 988.164063 C 721.5625 1001.40625 780.859375 1070 792.890625 1091.171875 C 786.484375 1113.125 770.15625 1133.984375 760.546875 1146.640625 C 731.953125 1135.195313 700.820313 1095.429688 678.828125 1075.546875 C 639.492188 1039.960938 661.484375 1003.398438 703.085938 988.164063 Z M 1025.976563 830.859375 L 1037.03125 828.515625 L 1034.765625 854.648438 C 1014.375 877.734375 1010.859375 886.09375 989.375 900.703125 C 924.609375 867.851563 936.40625 869.101563 936.171875 845.976563 C 979.765625 847.5 945.46875 855.3125 992.109375 859.140625 C 1006.5625 841.835938 1002.851563 842.265625 1025.976563 830.859375 Z M 3540.507813 1130 L 3557.34375 1151.875 Z M 3540.507813 1130 " transform="matrix(0.1,0,0,-0.1,0,474.5)"/>
<path style="fill-rule:evenodd;fill:rgb(0%,0%,0%);fill-opacity:1;stroke-width:2.16;stroke-linecap:butt;stroke-linejoin:miter;stroke:rgb(0%,0%,0%);stroke-opacity:1;stroke-miterlimit:4;" d="M 2372.03125 100.898438 C 3590.9375 100.898438 4585.3125 1060.78125 4641.328125 2265.78125 L 4006.367188 2265.78125 C 3951.132813 1411.171875 3240.664063 735.039063 2372.03125 735.039063 C 1503.632813 735.039063 793.203125 1410.976563 737.773438 2265.390625 L 102.851563 2265.390625 C 159.023438 1060.546875 1153.28125 100.898438 2372.03125 100.898438 Z M 3938.90625 2486.25 C 3880.78125 3300.9375 3201.5625 3943.90625 2372.03125 3943.90625 C 1542.578125 3943.90625 863.320313 3300.9375 805.234375 2486.25 L 783.164063 2486.25 L 783.164063 2486.210938 L 36.796875 2486.210938 L 36.796875 2486.25 L 3.671875 2486.25 C 62.773438 3743.164063 1100.507813 4744.140625 2372.03125 4744.140625 C 3643.632813 4744.140625 4681.367188 3743.164063 4740.46875 2486.25 L 4703.789063 2486.25 L 4703.789063 2486.09375 L 3957.421875 2486.09375 L 3957.421875 2486.25 Z M 745.234375 2563.4375 C 839.609375 3378.28125 1531.914063 4010.898438 2372.03125 4010.898438 C 3212.265625 4010.898438 3904.609375 3378.242188 3998.90625 2563.320313 L 4636.09375 2563.320313 C 4539.375 3729.0625 3562.773438 4645.039063 2372.03125 4645.039063 C 1181.40625 4645.039063 204.84375 3729.101563 108.085938 2563.4375 Z M 734.53125 2342.617188 L 734.53125 2342.8125 L 801.523438 2342.8125 C 817.617188 1489.140625 1514.53125 802.070313 2372.03125 802.070313 C 3229.53125 802.070313 3926.523438 1489.140625 3942.617188 2342.8125 L 3979.53125 2342.8125 L 3979.53125 2343.007813 L 4725.9375 2343.007813 L 4725.9375 2342.8125 L 4742.851563 2342.8125 C 4726.640625 1047.1875 3671.523438 1.796875 2372.03125 1.796875 C 1072.578125 1.796875 17.460938 1047.1875 1.25 2342.8125 L 100.390625 2342.8125 L 100.390625 2342.617188 Z M 734.53125 2342.617188 " transform="matrix(0.1,0,0,-0.1,0,474.5)"/>
<path style="fill-rule:evenodd;fill:rgb(100%,100%,100%);fill-opacity:1;stroke-width:2.16;stroke-linecap:butt;stroke-linejoin:miter;stroke:rgb(0%,0%,0%);stroke-opacity:1;stroke-miterlimit:4;" d="M 3415.703125 2208.476563 L 3590.390625 2208.476563 L 3579.921875 2152.929688 L 3499.296875 2152.929688 L 3486.015625 2082.5 L 3566.640625 2082.5 L 3554.609375 2018.789063 L 3473.515625 2018.789063 L 3460.234375 1948.359375 L 3541.367188 1948.359375 L 3520.195313 1836.054688 L 3347.578125 1836.054688 L 3268.398438 1429.570313 L 2930.9375 1429.570313 L 3010.078125 1836.054688 L 2835.742188 1836.054688 L 2897.851563 2156.679688 L 3052.03125 2156.679688 L 3078.710938 2298.4375 L 2813.085938 2298.4375 L 2723.554688 1836.054688 L 2463.867188 1836.054688 L 2603.554688 2602.773438 L 3487.539063 2602.773438 Z M 3415.703125 2208.476563 " transform="matrix(0.1,0,0,-0.1,0,474.5)"/>
<path style="fill-rule:evenodd;fill:rgb(100%,100%,100%);fill-opacity:1;stroke-width:2.16;stroke-linecap:butt;stroke-linejoin:miter;stroke:rgb(0%,0%,0%);stroke-opacity:1;stroke-miterlimit:4;" d="M 1506.796875 3293.242188 L 1888.4375 3293.242188 L 1844.453125 3059.960938 L 3284.0625 3059.960938 L 3272.578125 3008.984375 L 3167.851563 3008.984375 L 3150.390625 2931.953125 L 3255.234375 2931.953125 L 3243.164063 2878.203125 L 3138.476563 2878.203125 L 3121.015625 2801.171875 L 3225.78125 2801.171875 L 3204.921875 2708.320313 L 1778.203125 2708.320313 L 1613.789063 1836.054688 L 1232.148438 1836.054688 Z M 1506.796875 3293.242188 " transform="matrix(0.1,0,0,-0.1,0,474.5)"/>
<path style="fill-rule:evenodd;fill:rgb(100%,100%,100%);fill-opacity:1;stroke-width:2.16;stroke-linecap:butt;stroke-linejoin:miter;stroke:rgb(0%,0%,0%);stroke-opacity:1;stroke-miterlimit:4;" d="M 1861.601563 2602.773438 L 2472.34375 2602.773438 L 2332.617188 1836.054688 L 1721.875 1836.054688 L 1754.960938 2017.65625 L 2111.484375 2017.65625 L 2138.203125 2159.375 L 1780.78125 2159.375 L 1807.695313 2306.875 L 2167.460938 2306.875 L 2194.140625 2448.59375 L 1833.515625 2448.59375 Z M 1861.601563 2602.773438 " transform="matrix(0.1,0,0,-0.1,0,474.5)"/>
</g>
</svg>
